<?xml version="1.0" standalone="no"?>
<!DOCTYPE svg PUBLIC "-//W3C//DTD SVG 20010904//EN"
 "http://www.w3.org/TR/2001/REC-SVG-20010904/DTD/svg10.dtd">
<svg version="1.0" xmlns="http://www.w3.org/2000/svg"
 width="1024.000000pt" height="1024.000000pt" viewBox="0 0 1024.000000 1024.000000"
 preserveAspectRatio="xMidYMid meet">

	<g transform="translate(0.000000,1024.000000) scale(0.100000,-0.100000)"
	fill="#ffffff" stroke="none">
		<path d="M5030 7741 c-68 -14 -109 -43 -211 -149 -57 -59 -258 -266 -449 -460
-190 -194 -354 -370 -365 -390 -27 -51 -32 -150 -10 -208 36 -95 115 -153 220
-162 104 -8 139 11 286 155 136 132 159 143 200 102 20 -20 21 -26 18 -532 -3
-571 -4 -564 66 -660 74 -100 182 -151 310 -145 63 2 92 9 137 31 76 37 143
104 176 175 l27 57 5 531 c5 572 5 564 57 564 19 0 57 -31 148 -120 75 -73
139 -127 166 -140 133 -60 312 21 353 159 20 69 20 96 -1 162 -16 50 -40 77
-332 371 -173 175 -317 322 -321 328 -25 40 -290 293 -324 309 -50 23 -109 32
-156 22z"/>
		<path d="M4360 5899 c-36 -23 -137 -85 -225 -139 -550 -334 -528 -318 -573
-410 l-27 -55 0 -995 0 -995 28 -57 c34 -68 75 -106 194 -174 83 -48 430 -257
953 -574 129 -78 252 -149 274 -156 50 -18 143 -18 195 1 43 15 70 31 521 310
140 87 293 181 340 210 261 158 342 206 406 243 84 49 134 101 160 168 18 47
19 92 19 1039 l0 990 -24 49 c-34 69 -81 112 -191 177 -52 31 -225 135 -385
232 -159 96 -291 174 -293 172 -2 -1 -5 -72 -8 -157 l-4 -155 182 -108 c101
-59 197 -116 214 -126 17 -10 39 -28 49 -39 34 -37 6 -63 -195 -184 -193 -116
-537 -325 -724 -439 -148 -91 -176 -92 -321 -8 -353 204 -922 556 -933 578
-20 37 0 59 124 133 60 35 150 90 201 122 51 32 97 58 103 58 6 0 10 58 10
165 0 91 -1 165 -2 165 -2 0 -32 -19 -68 -41z m1994 -955 c8 -150 -1 -193 -47
-228 -18 -13 -95 -62 -172 -108 -77 -46 -324 -199 -550 -338 -225 -140 -429
-261 -452 -269 -66 -24 -111 -6 -363 148 -124 76 -373 227 -555 335 -194 116
-345 214 -367 236 l-38 39 0 151 c0 82 3 150 6 150 7 0 419 -244 779 -460 428
-258 396 -242 469 -247 82 -7 114 8 406 191 118 74 244 152 280 174 36 21 182
109 324 196 143 86 262 156 266 156 4 0 10 -57 14 -126z m0 -799 c-3 -30 -14
-60 -27 -76 -12 -15 -87 -66 -167 -115 -80 -48 -262 -159 -405 -247 -143 -88
-300 -185 -350 -215 -49 -31 -128 -79 -174 -109 -46 -29 -98 -55 -117 -59 -72
-13 -69 -15 -442 214 -72 45 -221 135 -330 200 -354 213 -437 264 -470 289
-57 42 -63 66 -60 228 l3 146 185 -109 c232 -136 544 -324 765 -460 94 -58
193 -115 220 -128 95 -45 166 -27 345 85 163 104 239 150 390 243 85 52 216
132 290 178 74 45 180 109 235 142 l100 58 7 -107 c4 -60 5 -130 2 -158z m0
-543 c7 -157 3 -188 -27 -225 -12 -14 -150 -104 -307 -200 -157 -96 -395 -243
-530 -327 -135 -85 -274 -169 -309 -187 -98 -51 -135 -45 -297 54 -54 33 -227
138 -384 233 -157 95 -362 219 -455 276 -94 57 -184 117 -200 134 l-30 31 -3
165 c-2 112 0 164 7 164 10 0 596 -347 1003 -594 160 -98 182 -108 236 -113
77 -7 105 6 382 177 570 352 893 549 901 549 3 1 9 -61 13 -137z"/>
	</g>
</svg>
